M48
; DRILL file {KiCad (6.0.0)} date Thu Jan 26 18:50:21 2023
; FORMAT={-:-/ absolute / inch / decimal}
; #@! TF.CreationDate,2023-01-26T18:50:21-06:00
; #@! TF.GenerationSoftware,Kicad,Pcbnew,(6.0.0)
; #@! TF.FileFunction,Plated,1,2,PTH
FMAT,2
INCH
; #@! TA.AperFunction,Plated,PTH,ViaDrill
T1C0.0118
; #@! TA.AperFunction,Plated,PTH,ComponentDrill
T2C0.0157
; #@! TA.AperFunction,Plated,PTH,ComponentDrill
T3C0.0315
; #@! TA.AperFunction,Plated,PTH,ComponentDrill
T4C0.0394
; #@! TA.AperFunction,Plated,PTH,ComponentDrill
T5C0.0430
; #@! TA.AperFunction,Plated,PTH,ComponentDrill
T6C0.0512
; #@! TA.AperFunction,Plated,PTH,ComponentDrill
T7C0.0591
; #@! TA.AperFunction,Plated,PTH,ComponentDrill
T8C0.0866
; #@! TA.AperFunction,Plated,PTH,ComponentDrill
T9C0.1614
%
G90
G05
T1
X0.1406Y-1.4571
X0.2024Y-1.7528
X0.2236Y-0.9886
X0.2601Y-3.2801
X0.2713Y-1.5862
X0.3123Y-1.1114
X0.3123Y-1.1735
X0.3445Y-0.902
X0.363Y-1.0201
X0.3917Y-1.8354
X0.3965Y-1.4311
X0.4313Y-1.0978
X0.4531Y-0.9921
X0.4758Y-0.8867
X0.4857Y-1.4884
X0.4865Y-1.0631
X0.5019Y-1.1267
X0.5116Y-0.8513
X0.5535Y-1.3996
X0.7141Y-3.4351
X0.798Y-0.6958
X0.8771Y-0.9374
X0.8984Y-0.208
X1.508Y-1.8803
X1.5899Y-0.3096
X1.644Y-0.0739
X1.644Y-0.849
X1.644Y-1.5662
X1.644Y-2.3451
X1.644Y-3.1138
X2.2714Y-1.7434
X2.2938Y-0.2473
X2.3677Y-0.7093
X2.3717Y0.008
X2.3717Y-1.4876
X2.3717Y-2.1945
X2.3717Y-2.9799
X3.001Y-0.159
X3.1386Y-0.0739
X3.1386Y-1.5662
X3.1386Y-2.3451
X3.1386Y-3.0584
X3.783Y-0.2473
X3.8654Y-0.4538
X3.8654Y-1.5662
X3.8654Y-2.6657
X4.494Y-0.6237
X4.494Y-2.1169
X4.6331Y-0.4538
X4.6331Y-1.1735
X4.6341Y-2.6666
T2
X0.365Y-0.396
X0.365Y-0.5062
X0.4909Y-0.396
X0.4909Y-0.5062
X0.6012Y-2.3015
X0.735Y-2.3015
X0.7567Y-3.0424
X0.8236Y-3.1583
X0.9043Y-0.6869
X0.9043Y-0.809
X0.9043Y-2.183
X0.9043Y-2.305
X1.0382Y-0.6869
X1.0382Y-0.809
X1.0382Y-2.183
X1.0382Y-2.305
X1.2783Y-3.0491
X1.4122Y-3.0491
X1.6878Y-0.5964
X1.6878Y-2.0964
X1.7272Y-0.7145
X1.7272Y-2.2145
X1.8217Y-0.5964
X1.8217Y-2.0964
X1.861Y-0.7145
X1.861Y-2.2145
X2.0264Y-2.9625
X2.1602Y-2.9625
X2.4004Y-0.5019
X2.4043Y-0.6279
X2.4043Y-2.0019
X2.4043Y-2.1239
X2.5343Y-0.5019
X2.5382Y-0.6279
X2.5382Y-2.0019
X2.5382Y-2.1239
X2.7941Y-2.8448
X2.928Y-2.8448
X3.1524Y-0.5924
X3.1524Y-0.7145
X3.1524Y-2.0885
X3.1524Y-2.2145
X3.2862Y-0.5924
X3.2862Y-0.7145
X3.2862Y-2.0885
X3.2862Y-2.2145
X3.5106Y-2.9432
X3.6445Y-2.9432
X3.8886Y-2.4507
X3.8886Y-2.5767
X3.8965Y-0.9546
X3.8965Y-1.0688
X4.0224Y-2.4507
X4.0224Y-2.5767
X4.0303Y-0.9546
X4.0303Y-1.0688
X5.1248Y-2.4507
X5.1287Y-2.5767
X5.1366Y-0.9468
X5.1366Y-1.0688
X5.2587Y-2.4507
X5.2626Y-2.5767
X5.2705Y-0.9468
X5.2705Y-1.0688
T3
X0.1159Y-1.7019
X0.1159Y-1.7806
X0.1159Y-1.8594
T4
X0.0776Y-2.498
X0.0776Y-2.5964
X0.0776Y-2.6948
X0.2055Y-1.3262
X0.3055Y-1.3262
X0.4055Y-1.3262
X0.5055Y-1.3262
X0.5061Y-1.9187
X0.6055Y-1.3262
X0.6061Y-1.9187
X0.6484Y-2.498
X0.6484Y-2.6948
X0.7061Y-1.9187
X1.1287Y-1.5023
X1.2311Y-1.5023
X1.3295Y-1.5023
T5
X0.0953Y-0.0861
X0.0953Y-0.2861
X0.0953Y-0.4861
X0.0953Y-0.6861
X0.0953Y-0.8861
X0.0953Y-1.0861
X0.1133Y-0.1861
X0.1133Y-0.3861
X0.1133Y-0.5861
X0.1133Y-0.7861
X0.1133Y-0.9861
X0.1133Y-1.1861
X0.6953Y-0.1861
X0.6953Y-0.3861
X0.6953Y-0.5861
X0.6953Y-0.7861
X0.6953Y-0.9861
X0.6953Y-1.1861
X0.7133Y-0.0861
X0.7133Y-0.2861
X0.7133Y-0.4861
X0.7133Y-0.6861
X0.7133Y-0.8861
X0.7133Y-1.0861
T6
X0.3039Y-1.6575
X0.3039Y-1.9134
T7
X0.1159Y-1.6192
X0.1159Y-1.942
T8
X0.2126Y-2.0787
X0.6063Y-2.0781
T9
X0.5539Y-3.1598
X1.5579Y-0.7499
X1.5579Y-2.2424
X4.5697Y-1.0102
X4.5697Y-2.518
T7
G00X0.3472Y-2.3759
M15
G01X0.3984Y-2.3759
M16
G05
G00X0.3472Y-2.8169
M15
G01X0.3984Y-2.8169
M16
G05
T0
M30
