%TF.GenerationSoftware,KiCad,Pcbnew,(6.0.0)*%
%TF.CreationDate,2023-01-26T18:50:21-06:00*%
%TF.ProjectId,SofleKeyboard,536f666c-654b-4657-9962-6f6172642e6b,rev?*%
%TF.SameCoordinates,Original*%
%TF.FileFunction,Profile,NP*%
%FSLAX46Y46*%
G04 Gerber Fmt 4.6, Leading zero omitted, Abs format (unit mm)*
G04 Created by KiCad (PCBNEW (6.0.0)) date 2023-01-26 18:50:21*
%MOMM*%
%LPD*%
G01*
G04 APERTURE LIST*
%TA.AperFunction,Profile*%
%ADD10C,0.150000*%
%TD*%
G04 APERTURE END LIST*
D10*
X-2500000Y-82000000D02*
X-8500000Y-85500000D01*
X0Y-59388000D02*
X0Y-60000000D01*
X0Y0D02*
X0Y-59388000D01*
X97000000Y2500000D02*
X78000000Y2500000D01*
X135000000Y-6500000D02*
X97000000Y-6500000D01*
X41000000Y2500000D02*
X41000000Y0D01*
X0Y-80500000D02*
X-2500000Y-82000000D01*
X60000000Y2500000D02*
X41000000Y2500000D01*
X41000000Y0D02*
X21500000Y0D01*
X60000000Y5000000D02*
X60000000Y2500000D01*
X78000000Y2500000D02*
X78000000Y5000000D01*
X40500000Y-92500000D02*
X97000000Y-92500000D01*
X21500000Y0D02*
X0Y0D01*
X97000000Y-92500000D02*
X135000000Y-82500000D01*
X-8500000Y-85500000D02*
X6000000Y-110500000D01*
X135000000Y-82500000D02*
X135000000Y-6500000D01*
X23000000Y-100500000D02*
X40500000Y-92500000D01*
X78000000Y5000000D02*
X60000000Y5000000D01*
X6000000Y-110500000D02*
X23000000Y-100500000D01*
X97000000Y-6500000D02*
X97000000Y2500000D01*
X0Y-60000000D02*
X0Y-80500000D01*
M02*
